<svg xmlns="http://www.w3.org/2000/svg" viewBox="0 0 96 96" fill="none" stroke="#063766" stroke-width="5" stroke-linecap="round" stroke-linejoin="round"><path d="M48 10v10M48 76v10M10 48h10M76 48h10M21 21l7 7M68 68l7 7M75 21l-7 7M28 68l-7 7"/><circle cx="48" cy="48" r="15"/><path d="M58.5 18.5l7.5 4.3-3.2 10a30.8 30.8 0 0 1 5 8.7l10.3 2v9l-10.3 2a31 31 0 0 1-5 8.7l3.2 10-7.5 4.3-7.2-7.8a31 31 0 0 1-10.6 0l-7.2 7.8-7.5-4.3 3.2-10a31 31 0 0 1-5-8.7l-10.3-2v-9l10.3-2a30.8 30.8 0 0 1 5-8.7l-3.2-10 7.5-4.3 7.2 7.8a31 31 0 0 1 10.6 0l7.2-7.8z"/></svg>