<svg xmlns="http://www.w3.org/2000/svg" viewBox="0 0 160 120" fill="none">
  <g stroke="#0B2F78" stroke-width="5" stroke-linecap="round" stroke-linejoin="round">
    <circle cx="80" cy="60" r="15"/>
    <path d="M80 24v10"/><path d="M80 86v10"/>
    <path d="M50 60H40"/><path d="M120 60h-10"/>
    <path d="M58 38l-7-7"/><path d="M109 89l-7-7"/>
    <path d="M58 82l-7 7"/><path d="M109 31l-7 7"/>
    <path d="M98 24l4 12 11 4-4 11 4 9-11 5-4 11-11-4-7 4-7-4-11 4-4-11-11-5 4-9-4-11 11-4 4-12 11 4 7-4 7 4 11-4Z"/>
  </g>
</svg>